<?xml version="1.0" encoding="UTF-8"?>
<svg id="Layer_2" data-name="Layer 2" xmlns="http://www.w3.org/2000/svg" viewBox="0 0 1277.94 1533.48">
  <defs>
    <style>
      .cls-1 {
        stroke: #000;
        stroke-miterlimit: 10;
        stroke-width: .25px;
      }
    </style>
  </defs>
  <g id="Layer_1-2" data-name="Layer 1">
    <g>
      <polygon class="cls-1" points="894.52 .12 894.52 127.9 766.75 127.9 766.75 255.67 511.21 255.67 511.21 127.9 638.98 127.9 638.98 .12 894.52 .12"/>
      <polygon class="cls-1" points="1022.29 894.52 1150.06 894.52 1150.06 1022.29 1277.81 1022.29 1277.81 1277.83 1150.06 1277.83 1150.06 1405.6 1022.29 1405.6 1022.29 1533.36 766.75 1533.36 766.75 1405.6 638.98 1405.6 638.98 1533.36 383.44 1533.36 383.44 1405.6 255.67 1405.6 255.67 1277.83 127.9 1277.83 127.9 1022.29 .12 1022.29 .12 511.21 127.9 511.21 127.9 383.44 638.98 383.44 638.98 511.21 766.75 511.21 766.75 383.44 1277.81 383.44 1277.81 511.21 1150.06 511.21 1150.06 638.98 1022.29 638.98 1022.29 894.52"/>
    </g>
  </g>
</svg>