<?xml version="1.0" encoding="UTF-8"?>
<svg id="Layer_2" data-name="Layer 2" xmlns="http://www.w3.org/2000/svg" viewBox="0 0 1277.94 1661.25">
  <defs>
    <style>
      .cls-1 {
        stroke: #000;
        stroke-miterlimit: 10;
        stroke-width: .25px;
      }
    </style>
  </defs>
  <g id="Layer_1-2" data-name="Layer 1">
    <g>
      <rect class="cls-1" x="894.52" y=".12" width="127.77" height="127.77"/>
      <polygon class="cls-1" points="894.52 127.89 894.52 255.66 766.75 255.66 766.75 383.43 511.21 383.43 511.21 255.66 638.98 255.66 638.98 127.89 894.52 127.89"/>
      <polygon class="cls-1" points="1022.29 1022.28 1150.06 1022.28 1150.06 1150.05 1277.81 1150.05 1277.81 1405.59 1150.06 1405.59 1150.06 1533.36 1022.29 1533.36 1022.29 1661.12 766.75 1661.12 766.75 1533.36 638.98 1533.36 638.98 1661.12 383.44 1661.12 383.44 1533.36 255.67 1533.36 255.67 1405.59 127.9 1405.59 127.9 1150.05 .12 1150.05 .12 638.97 127.9 638.97 127.9 511.2 638.98 511.2 638.98 638.97 766.75 638.97 766.75 511.2 1277.81 511.2 1277.81 638.97 1150.06 638.97 1150.06 766.74 1022.29 766.74 1022.29 1022.28"/>
    </g>
  </g>
</svg>