<?xml version="1.0" encoding="UTF-8"?>
<svg id="Layer_2" data-name="Layer 2" xmlns="http://www.w3.org/2000/svg" viewBox="0 0 1277.69 1661">
  <defs>
    <style>
      .cls-1 {
        fill: #e086c3;
      }

      .cls-2 {
        fill: #d870a7;
      }

      .cls-3 {
        fill: #e386ba;
      }

      .cls-4 {
        fill: #da6693;
      }

      .cls-5 {
        fill: #c93450;
      }

      .cls-6 {
        fill: #dc7cb3;
      }

      .cls-7 {
        fill: #d25b8e;
      }

      .cls-8 {
        fill: #d35278;
      }

      .cls-9 {
        fill: #c8457f;
      }

      .cls-10 {
        fill: #d5679c;
      }

      .cls-11 {
        fill: #c93143;
      }

      .cls-12 {
        fill: #c83e6b;
      }

      .cls-13 {
        fill: #d36094;
      }
    </style>
  </defs>
  <g id="Layer_1-2" data-name="Layer 1">
    <g>
      <rect class="cls-5" x="1149.92" y="1277.7" width="127.77" height="127.77"/>
      <rect class="cls-1" x="1149.92" y="1149.93" width="127.77" height="127.77"/>
      <rect class="cls-3" x="1149.92" y="511.08" width="127.77" height="127.77"/>
      <rect class="cls-11" x="1022.15" y="1405.47" width="127.77" height="127.76"/>
      <rect class="cls-5" x="1022.15" y="1277.7" width="127.77" height="127.77"/>
      <rect class="cls-8" x="1022.15" y="1149.93" width="127.77" height="127.77"/>
      <rect class="cls-1" x="1022.15" y="1022.16" width="127.77" height="127.77"/>
      <rect class="cls-3" x="1022.15" y="638.85" width="127.77" height="127.77"/>
      <rect class="cls-4" x="1022.15" y="511.08" width="127.77" height="127.77"/>
      <rect class="cls-6" x="894.38" width="127.77" height="127.77"/>
      <rect class="cls-11" x="894.38" y="1533.23" width="127.77" height="127.77"/>
      <rect class="cls-5" x="894.38" y="1405.47" width="127.77" height="127.76"/>
      <rect class="cls-12" x="894.38" y="1277.7" width="127.77" height="127.77"/>
      <rect class="cls-9" x="894.38" y="1149.93" width="127.77" height="127.77"/>
      <rect class="cls-8" x="894.38" y="1022.16" width="127.77" height="127.77"/>
      <rect class="cls-3" x="894.38" y="894.39" width="127.77" height="127.77"/>
      <rect class="cls-3" x="894.38" y="766.62" width="127.77" height="127.77"/>
      <rect class="cls-4" x="894.38" y="638.85" width="127.77" height="127.77"/>
      <rect class="cls-4" x="894.38" y="511.08" width="127.77" height="127.77"/>
      <rect class="cls-2" x="766.61" y="127.77" width="127.77" height="127.77"/>
      <rect class="cls-11" x="766.61" y="1533.23" width="127.77" height="127.77"/>
      <rect class="cls-11" x="766.61" y="1405.47" width="127.77" height="127.76"/>
      <rect class="cls-5" x="766.61" y="1277.7" width="127.77" height="127.77"/>
      <rect class="cls-12" x="766.61" y="1149.93" width="127.77" height="127.77"/>
      <rect class="cls-8" x="766.61" y="1022.16" width="127.77" height="127.77"/>
      <rect class="cls-4" x="766.61" y="894.39" width="127.77" height="127.77"/>
      <rect class="cls-4" x="766.61" y="766.62" width="127.77" height="127.77"/>
      <rect class="cls-4" x="766.61" y="638.85" width="127.77" height="127.77"/>
      <rect class="cls-4" x="766.61" y="511.08" width="127.77" height="127.77"/>
      <rect class="cls-10" x="638.84" y="127.77" width="127.77" height="127.77"/>
      <rect class="cls-11" x="638.84" y="1405.47" width="127.77" height="127.76"/>
      <rect class="cls-5" x="638.84" y="1277.7" width="127.77" height="127.77"/>
      <rect class="cls-12" x="638.84" y="1149.93" width="127.77" height="127.77"/>
      <rect class="cls-9" x="638.84" y="1022.16" width="127.77" height="127.77"/>
      <rect class="cls-8" x="638.84" y="894.39" width="127.77" height="127.77"/>
      <rect class="cls-8" x="638.84" y="766.62" width="127.77" height="127.77"/>
      <rect class="cls-8" x="638.84" y="638.85" width="127.77" height="127.77"/>
      <rect class="cls-13" x="638.84" y="255.54" width="127.77" height="127.77"/>
      <rect class="cls-11" x="511.07" y="1533.23" width="127.77" height="127.77"/>
      <rect class="cls-11" x="511.07" y="1405.47" width="127.77" height="127.76"/>
      <rect class="cls-5" x="511.07" y="1277.7" width="127.77" height="127.77"/>
      <rect class="cls-12" x="511.07" y="1149.93" width="127.77" height="127.77"/>
      <rect class="cls-12" x="511.07" y="1022.16" width="127.77" height="127.77"/>
      <rect class="cls-9" x="511.07" y="894.39" width="127.77" height="127.77"/>
      <rect class="cls-9" x="511.07" y="766.62" width="127.77" height="127.77"/>
      <rect class="cls-9" x="511.07" y="638.85" width="127.77" height="127.77"/>
      <rect class="cls-12" x="511.07" y="511.08" width="127.77" height="127.77"/>
      <rect class="cls-7" x="511.07" y="255.54" width="127.77" height="127.77"/>
      <rect class="cls-11" x="383.31" y="1533.23" width="127.76" height="127.77"/>
      <rect class="cls-11" x="383.31" y="1405.47" width="127.76" height="127.76"/>
      <rect class="cls-5" x="383.31" y="1277.7" width="127.76" height="127.77"/>
      <rect class="cls-5" x="383.31" y="1149.93" width="127.76" height="127.77"/>
      <rect class="cls-12" x="383.31" y="1022.16" width="127.76" height="127.77"/>
      <rect class="cls-12" x="383.31" y="894.39" width="127.76" height="127.77"/>
      <rect class="cls-12" x="383.31" y="766.62" width="127.76" height="127.77"/>
      <rect class="cls-12" x="383.31" y="638.85" width="127.76" height="127.77"/>
      <rect class="cls-12" x="383.31" y="511.08" width="127.76" height="127.77"/>
      <rect class="cls-11" x="255.54" y="1405.47" width="127.77" height="127.76"/>
      <rect class="cls-11" x="255.54" y="1277.7" width="127.77" height="127.77"/>
      <rect class="cls-5" x="255.54" y="1149.93" width="127.77" height="127.77"/>
      <rect class="cls-5" x="255.54" y="1022.16" width="127.77" height="127.77"/>
      <rect class="cls-5" x="255.54" y="894.39" width="127.77" height="127.77"/>
      <rect class="cls-12" x="255.54" y="766.62" width="127.77" height="127.77"/>
      <rect class="cls-12" x="255.54" y="638.85" width="127.77" height="127.77"/>
      <rect class="cls-5" x="255.54" y="511.08" width="127.77" height="127.77"/>
      <rect class="cls-11" x="127.77" y="1277.7" width="127.77" height="127.77"/>
      <rect class="cls-11" x="127.77" y="1149.93" width="127.77" height="127.77"/>
      <rect class="cls-11" x="127.77" y="1022.16" width="127.77" height="127.77"/>
      <rect class="cls-5" x="127.77" y="894.39" width="127.77" height="127.77"/>
      <rect class="cls-5" x="127.77" y="766.62" width="127.77" height="127.77"/>
      <rect class="cls-5" x="127.77" y="638.85" width="127.77" height="127.77"/>
      <rect class="cls-11" x="127.77" y="511.08" width="127.77" height="127.77"/>
      <rect class="cls-11" y="1022.16" width="127.77" height="127.77"/>
      <rect class="cls-11" y="894.39" width="127.77" height="127.77"/>
      <rect class="cls-11" y="766.62" width="127.77" height="127.77"/>
      <rect class="cls-11" y="638.85" width="127.77" height="127.77"/>
    </g>
  </g>
</svg>